PathFileType	4	(X/Y/Z)	OpenSim_Sub01_EMGBaseline_Magnet.trc
DataRate	CameraRate	NumFrames	NumMarkers	Units	OrigDataRate	OrigDataStartFrame	OrigNumFrames
100	100	23	8	m	100	2852	7604
Frame#	Time	torso_imu_offset_imu	pelvis_imu_offset_imu	tibia_r_imu_offset_imu	femur_r_imu_offset_imu	tibia_l_imu_offset_imu	femur_l_imu_offset_imu	toes_r_imu_offset_imu	toes_l_imu_offset_imu
				X1	Y1	Z1	X2	Y2	Z2	X3	Y3	Z3	X4	Y4	Z4	X5	Y5	Z5	X6	Y6	Z6	X7	Y7	Z7	X8		Y8	Z8	

2852	28.51000000	-0.92011909	-0.13211553	0.09068118	-0.70814505	0.13056861	-0.59681516	-0.42170062	-0.66476469	-0.07143381	-0.79829760	-0.19884259	0.07477100	-0.54265958	0.56486905	0.22265502	-0.44431217	0.01446525	0.34238023	-0.76297486	-0.19538430	-0.12126847	-0.71001555	-0.11758140	-0.36875565
2853	28.52000000	-0.91757320	-0.13313481	0.09455391	-0.70684814	0.13447258	-0.59848750	-0.45194605	-0.64284968	-0.07158761	-0.79813043	-0.19820259	0.07579073	-0.53976682	0.56659606	0.22372771	-0.44342431	0.02080718	0.34220155	-0.75984520	-0.18146754	-0.16186006	-0.71319249	-0.11656401	-0.36807784
2854	28.53000000	-0.91267827	-0.13352044	0.09674787	-0.70446170	0.13425212	-0.59870367	-0.48078864	-0.62129207	-0.07269371	-0.79896638	-0.19815357	0.07694615	-0.53228234	0.57389189	0.22442454	-0.44052973	0.02528758	0.34568821	-0.75462200	-0.16762632	-0.19916766	-0.71595405	-0.11485147	-0.36712951
2855	28.54000000	-0.90931010	-0.13329024	0.09806787	-0.70169463	0.13246683	-0.59838753	-0.50770560	-0.59865460	-0.07480559	-0.80002351	-0.19925997	0.07778585	-0.52359615	0.58296339	0.22465301	-0.43672867	0.02933614	0.34985235	-0.74748431	-0.15451694	-0.23528068	-0.71859530	-0.11295898	-0.36623853
2856	28.55000000	-0.91169021	-0.13259314	0.09972582	-0.69943292	0.13231647	-0.59870574	-0.53228852	-0.57316666	-0.07788494	-0.80037373	-0.20223010	0.07765495	-0.51775460	0.58895731	0.22438629	-0.43349770	0.03467749	0.35106621	-0.73864007	-0.14291712	-0.27271764	-0.72158429	-0.11153784	-0.36566996
2857	28.56000000	-0.91815814	-0.13171757	0.10224065	-0.69827443	0.13374794	-0.59978010	-0.55544668	-0.54530439	-0.08158451	-0.79958319	-0.20708491	0.07627517	-0.51476779	0.59129907	0.22348013	-0.43112331	0.04109717	0.35004955	-0.72821417	-0.13322501	-0.31102792	-0.72511928	-0.11073739	-0.36505876
2858	28.57000000	-0.92252740	-0.13105907	0.10559749	-0.69859488	0.13420478	-0.60092826	-0.57910294	-0.51727284	-0.08531898	-0.79759877	-0.21331623	0.07365836	-0.51153959	0.59270730	0.22170017	-0.42897598	0.04688852	0.35086755	-0.71626766	-0.12554613	-0.34747591	-0.72919068	-0.11032074	-0.36355508
2859	28.58000000	-0.92098401	-0.13068937	0.10933404	-0.70034140	0.13211067	-0.60170261	-0.60417590	-0.49052266	-0.08820083	-0.79465849	-0.22043933	0.07007742	-0.50616707	0.59532784	0.21917948	-0.42657360	0.05093500	0.35587425	-0.70293386	-0.11938092	-0.38016073	-0.73350576	-0.11030791	-0.36060185
2860	28.59000000	-0.91710974	-0.12970995	0.11169938	-0.70220449	0.12899300	-0.60241453	-0.62852254	-0.46413063	-0.08846295	-0.79183646	-0.22807952	0.06655883	-0.50053009	0.59935273	0.21714989	-0.42394200	0.05398764	0.36208358	-0.68856572	-0.11245414	-0.40983642	-0.73694631	-0.11151182	-0.35654904
2861	28.60000000	-0.91557460	-0.12716858	0.11087443	-0.70273099	0.12681760	-0.60346984	-0.64956777	-0.43686514	-0.08435521	-0.79022957	-0.23591099	0.06421989	-0.49701328	0.60457265	0.21695525	-0.42117587	0.05709602	0.36577396	-0.67357492	-0.10223586	-0.43768854	-0.73836955	-0.11476528	-0.35191637
2862	28.61000000	-0.91687167	-0.12399405	0.10758525	-0.70179433	0.12552480	-0.60458803	-0.66674078	-0.40944651	-0.07681567	-0.78896189	-0.24403526	0.06345170	-0.49508914	0.61017809	0.21857576	-0.41799483	0.06061029	0.36699195	-0.65864455	-0.08729734	-0.46401445	-0.73854839	-0.11900550	-0.34725388
2863	28.62000000	-0.91827939	-0.12256214	0.10451649	-0.70028902	0.12349630	-0.60496065	-0.68101342	-0.38409703	-0.06885134	-0.78563987	-0.25288249	0.06408621	-0.49198932	0.61489802	0.22094200	-0.41383010	0.06434223	0.36868393	-0.64466638	-0.06705855	-0.48842761	-0.73972960	-0.12171142	-0.34313464
2864	28.63000000	-0.91790192	-0.12391202	0.10360104	-0.69897705	0.11990471	-0.60434725	-0.69314698	-0.36216329	-0.06299057	-0.77919293	-0.26246355	0.06567734	-0.48609560	0.61815972	0.22306485	-0.40852994	0.06809148	0.37275593	-0.63218384	-0.04232139	-0.51034295	-0.74300888	-0.12159495	-0.33975623
2865	28.64000000	-0.91654276	-0.12500052	0.10438813	-0.69814856	0.11639197	-0.60423547	-0.70315905	-0.34227503	-0.06018135	-0.77259746	-0.27151834	0.06699578	-0.47937842	0.62150065	0.22427407	-0.40320389	0.07166281	0.37780093	-0.62068936	-0.01792910	-0.52863767	-0.74594909	-0.12114315	-0.33619860
2866	28.65000000	-0.91543849	-0.12230921	0.10599770	-0.69800092	0.11491062	-0.60627173	-0.71094866	-0.32277820	-0.06094912	-0.76934966	-0.27860597	0.06678630	-0.47429182	0.62672993	0.22398635	-0.39912566	0.07486705	0.38189548	-0.60958857	0.00089302	-0.54217219	-0.74567063	-0.12330630	-0.33142273
2867	28.66000000	-0.91483820	-0.11650134	0.10771973	-0.69864801	0.11523009	-0.60969820	-0.71669810	-0.30528857	-0.06386864	-0.76952749	-0.28309643	0.06557276	-0.47059712	0.63388338	0.22203750	-0.39653590	0.07759181	0.38455364	-0.59989601	0.01438308	-0.55104379	-0.74244701	-0.12752144	-0.32570088
2868	28.67000000	-0.91423112	-0.11145821	0.10897526	-0.70013918	0.11543986	-0.61190711	-0.72080749	-0.29393782	-0.06601375	-0.77057804	-0.28498416	0.06524808	-0.46598341	0.64163185	0.21858636	-0.39488003	0.07978383	0.38639598	-0.59386418	0.02698298	-0.55630140	-0.73897836	-0.13052216	-0.32031432
2869	28.68000000	-0.91348932	-0.10975558	0.10935888	-0.70207166	0.11439170	-0.61135012	-0.72334299	-0.29139015	-0.06535620	-0.77052474	-0.28461972	0.06709335	-0.45891640	0.64878124	0.21431071	-0.39354849	0.08151231	0.38800799	-0.59302330	0.04062734	-0.55849528	-0.73725171	-0.13027873	-0.31597468
2870	28.69000000	-0.91368056	-0.10984403	0.10897086	-0.70270433	0.11333084	-0.60976838	-0.72336197	-0.29575688	-0.06265051	-0.76930461	-0.28336408	0.07046696	-0.45032772	0.65464307	0.21140568	-0.39182911	0.08320566	0.38978619	-0.59666272	0.04947935	-0.55662109	-0.73694956	-0.12864278	-0.31162381
2871	28.70000000	-0.91594826	-0.10953300	0.10802120	-0.70025295	0.11380276	-0.60938306	-0.71984964	-0.30433074	-0.05918237	-0.76724376	-0.28265145	0.07439080	-0.44153484	0.65871104	0.21209107	-0.38904861	0.08530190	0.39203407	-0.60373051	0.04682012	-0.54950667	-0.73735595	-0.12805720	-0.30595378
2872	28.71000000	-0.91926028	-0.10845068	0.10696256	-0.69599113	0.11522394	-0.61049788	-0.71350280	-0.31475051	-0.05648764	-0.76519567	-0.28221631	0.07817039	-0.43280634	0.66180633	0.21475777	-0.38539900	0.08738908	0.39418583	-0.61426646	0.03423147	-0.53776959	-0.73816801	-0.12907437	-0.29881524
2873	28.72000000	-0.92091071	-0.10762502	0.10643412	-0.69354517	0.11537275	-0.61194080	-0.70633548	-0.32492195	-0.05629362	-0.76441931	-0.28048553	0.08132985	-0.42360355	0.66577169	0.21485059	-0.38173836	0.08840132	0.39500690	-0.62914997	0.01968336	-0.52340461	-0.73940099	-0.13079159	-0.29095041
2874	28.73000000	-0.91941380	-0.10766170	0.10667714	-0.69495360	0.11301721	-0.61286461	-0.70001846	-0.33351399	-0.05892304	-0.76544124	-0.27697668	0.08374554	-0.41355436	0.67205423	0.20953526	-0.37890290	0.08778429	0.39380373	-0.64816047	0.00893942	-0.50764301	-0.74121706	-0.13253312	-0.28275017
